<?xml version="1.0" encoding="UTF-8"?>
<!-- Generator: Adobe Illustrator 24.0.2, SVG Export Plug-In . SVG Version: 6.00 Build 0)  -->
<svg version="1.0" id="Capa_1" xmlns="http://www.w3.org/2000/svg" xmlns:xlink="http://www.w3.org/1999/xlink" x="0px" y="0px" viewBox="0 0 422.97 86.15" style="enable-background:new 0 0 422.97 86.15;" xml:space="preserve">
<g>
	<path d="M420.45,20.56c-0.1-0.7-0.21-1.37-0.34-2.01c-0.5-2.55-1.15-4.57-1.69-5.53c-2.24-4.05-5.48-6.71-9.31-8.46   c-2.09-0.95-4.35-1.64-6.72-2.13c-0.79-0.16-1.59-0.31-2.4-0.43c-5.27-0.81-10.94-0.85-16.33-0.92l-25.62-0.33l0,0l0,0l0.05,6.3   l0.1,12.61l0,0h16.68c3.37,0,6.71,0.1,9.71,0.24c1.2,0.06,2.34,0.12,3.42,0.18c0.54,0.03,1.05,0.07,1.55,0.1   c2.99,0.2,5.44,0.9,7.33,1.91c1.89,1,3.22,2.31,3.95,3.73c2.45,4.72-1.7,10.66-13.59,10.63c-0.71,0-1.45,0-2.21-0.01   c-2.27-0.01-4.74-0.02-7.51-0.03c-0.62,0-1.25,0-1.89,0c-0.65,0-1.31,0-1.98,0l0,0h-15.71l0,0v18.58l0,0l0,0   c7.26,0.04,14.44-0.35,21.69-0.36c4.35-0.01,8.72,0.11,13.14,0.54c2.47,1.26,3.08,2.36,3.22,3.75c0.05,0.46,0.04,0.96,0.03,1.5   c-0.01,0.73-0.03,1.54,0.08,2.49c0.79,7.23-0.38,18.1-0.34,22.74l21.48,0.08c-0.17-5.61-0.13-13.76-0.19-20.75   c-0.01-0.87-0.02-1.73-0.03-2.56c-0.03-2.07-0.07-3.99-0.14-5.62c-0.03-0.66-0.06-1.27-0.09-1.83c-0.12-1.96-0.29-3.3-0.55-3.71   c-0.2-0.32-0.45-0.62-0.73-0.9c-0.28-0.28-0.6-0.53-0.94-0.76c-0.17-0.12-0.35-0.23-0.53-0.34c-3.27-1.93-8.16-2.4-7.53-3.85   c0.21-0.48,1.03-1.07,2.73-1.86c0.85-0.39,1.92-0.84,3.24-1.34c1.91-0.73,3.42-1.85,4.6-3.24c1.18-1.38,2.03-3.03,2.63-4.82   c0.83-2.51,1.15-5.29,1.16-8C420.85,24.21,420.7,22.3,420.45,20.56z"/>
	<polygon points="360.78,84.14 345.77,29.84 338.26,2.69 338.26,2.69 338.26,2.69 316.18,2.69 335.02,68.91 306.25,68.66    321.57,36.79 302.13,36.79 281.45,84.06 281.45,84.06 281.45,84.06 281.45,84.07 291.24,84.08 347.33,84.17 347.34,84.15    350.07,84.15  "/>
	<polygon points="272.37,1.22 247.34,1.15 247.34,1.15 247.34,1.15 220.93,28.83 221.02,33.96 221.02,60.55 245.51,84.11    275.3,84.17 233.18,44.39  "/>
	<polygon points="193.53,2.49 193.53,2.49 171.44,2.49 171.44,2.49 186.9,56.8 190.29,68.71 166.43,68.51 161.52,68.47    165.47,60.24 176.84,36.59 176.84,36.59 176.84,36.59 157.4,36.59 136.72,83.86 136.71,83.87 136.72,83.87 136.72,83.87    145.41,83.88 153.96,83.89 180.64,83.94 202.6,83.97 202.6,83.97 202.6,83.97 202.61,83.95 216.05,83.94  "/>
	<path d="M107.93,0.98c-2.54-0.12-5.09-0.16-7.6-0.2c-0.42-0.01-0.83-0.01-1.25-0.02L73.47,0.43l0,0l0,0l0.15,18.91l0,0H90.3   c1.69,0,3.36,0.03,4.99,0.07c1.63,0.04,3.22,0.1,4.72,0.17c0.6,0.03,1.19,0.06,1.76,0.09c1.14,0.06,2.22,0.13,3.21,0.19   c6.47,0.44,10.44,3.21,11.6,6.35c0.27,0.72,0.39,1.47,0.35,2.21c-0.06,1.23-0.55,2.45-1.48,3.54c-0.93,1.09-2.3,2.06-4.14,2.78   c-0.73,0.29-1.54,0.54-2.43,0.75c-0.44,0.1-0.9,0.2-1.38,0.28c-1.44,0.24-3.05,0.37-4.83,0.36c-0.47,0-0.96,0-1.45,0   c-2.47-0.01-5.19-0.02-8.27-0.03c-0.62,0-1.25,0-1.89,0c-0.65,0-1.31,0-1.98,0l0,0H73.36l0,0v18.58l0,0l0,0   c2.9,0.01,5.79-0.04,8.68-0.11c2.89-0.07,5.77-0.16,8.66-0.21c1.45-0.03,2.89-0.04,4.34-0.05c4.35-0.01,8.72,0.11,13.14,0.54   c1.92,0.98,2.72,1.86,3.04,2.86c0.19,0.57,0.22,1.18,0.21,1.86c0,0.86-0.06,1.84,0.07,3.02c0.25,2.26,0.3,4.87,0.26,7.54   c-0.02,1.6-0.08,3.22-0.15,4.8c-0.05,1.05-0.1,2.08-0.15,3.07c-0.11,1.98-0.21,3.81-0.26,5.32c-0.03,0.76-0.04,1.43-0.04,2.01   l21.48,0.08c-0.05-1.75-0.08-3.75-0.11-5.89c-0.01-1.28-0.02-2.61-0.03-3.97c-0.01-1.81-0.02-3.66-0.02-5.49   c0-0.92-0.01-1.83-0.01-2.73c0-0.45-0.01-0.9-0.01-1.34c-0.01-0.89-0.01-1.76-0.02-2.62c-0.04-3.84-0.13-7.23-0.3-9.52   c-0.12-1.52-0.28-2.56-0.49-2.9c-1.83-2.92-7.25-3.72-9.13-4.81c-0.52-0.3-0.78-0.63-0.6-1.03c0.07-0.16,0.21-0.33,0.42-0.52   c0.11-0.09,0.23-0.19,0.38-0.29c0.89-0.61,2.52-1.38,5.16-2.39c3.06-1.17,5.09-3.34,6.39-5.99c0.32-0.66,0.6-1.36,0.84-2.07   c0.24-0.72,0.43-1.45,0.59-2.21c0.08-0.38,0.15-0.76,0.21-1.14c1.17-7.27-0.8-15.47-2.07-17.77C128.75,3.5,118.5,1.5,107.93,0.98z"/>
	<path d="M63.68,25.22c-0.26-0.59-0.53-1.17-0.81-1.75c-3.68-7.5-9.49-13.94-17.25-17.93C40.26,2.77,33.96,1.18,26.79,1.2L1.26,1.31   l0.17,22.68L1.6,46.68l0,0l0,0l19.22-0.15l-0.27-25.6c1.56-0.26,3.06-0.39,4.52-0.41s2.85,0.07,4.2,0.26   c0.9,0.13,1.77,0.3,2.61,0.52c0.85,0.22,1.66,0.47,2.46,0.77c1.58,0.59,3.06,1.33,4.41,2.2c0.68,0.44,1.33,0.9,1.95,1.4   c2.16,1.73,3.96,3.81,5.33,6.09c0.98,1.63,1.74,3.36,2.28,5.14c0.53,1.78,0.83,3.61,0.89,5.43c0.03,1.1-0.03,2.19-0.18,3.27   s-0.4,2.15-0.74,3.2c-2.62,8.02-10.92,14.63-26.58,14.71c-1.36,0.01-2.78-0.04-4.25-0.13L9.28,63.3l-8.16-0.07l0,0l0,0l0.16,20.25   l24.31-0.15c28.68-0.17,41.81-19.5,41.94-39.35c0.01-1.28-0.04-2.56-0.14-3.84C67,35.01,65.75,29.93,63.68,25.22z"/>
</g>
</svg>